<svg width="30" height="30" viewBox="0 0 30 30" fill="none" xmlns="http://www.w3.org/2000/svg">
<path d="M29.2419 15.1427C29.2419 19.8406 24.8416 23.7652 19.1178 24.449C22.7749 22.8581 25.3469 19.2012 25.3469 14.9496C25.3469 11.1289 23.2804 7.78398 20.203 6.00003C25.3915 7.01078 29.2419 10.7275 29.2419 15.1426V15.1427Z" fill="#151618"/>
<path d="M14.9257 30C6.66003 29.9557 0 23.2507 0 15.0002C0 6.74961 6.66003 0.0446233 14.9257 0C8.54816 1.99214 3.8947 7.95362 3.8947 15.0002V15.1933C3.8947 15.4016 3.8947 15.5947 3.90963 15.8031C4.25152 22.4929 8.78588 28.0822 14.9255 30H14.9257Z" fill="#151618"/>
<path d="M28.8405 20.7681C27.1904 24.7226 23.8901 27.8295 19.8167 29.2124H19.5938C14.6432 29.2124 10.2875 26.67 7.73053 22.8198C10.1684 24.8414 13.558 26.1051 17.3191 26.1051C22.2101 26.1051 26.4917 23.9645 28.8405 20.7681Z" fill="url(#paint0_linear_3608_123)"/>
<path d="M29.1525 10.0645C26.8927 6.61541 22.4329 4.26678 17.3189 4.26678C15.8621 4.26678 14.4647 4.45988 13.1563 4.8167C11.2386 5.30739 9.51409 6.16984 8.08696 7.28476C7.77476 7.50755 7.47733 7.77513 7.19482 8.04254C9.63336 3.71654 14.2863 0.773041 19.5935 0.773041H19.7719C24.1576 2.24479 27.6361 5.69391 29.1525 10.0645Z" fill="url(#paint1_linear_3608_123)"/>
<defs>
<linearGradient id="paint0_linear_3608_123" x1="7.73037" y1="24.9902" x2="28.8405" y2="24.9902" gradientUnits="userSpaceOnUse">
<stop stop-color="#FF5133"/>
<stop offset="1" stop-color="#FF8533"/>
</linearGradient>
<linearGradient id="paint1_linear_3608_123" x1="7.19499" y1="5.41879" x2="29.1525" y2="5.41879" gradientUnits="userSpaceOnUse">
<stop stop-color="#FF5133"/>
<stop offset="1" stop-color="#FF8533"/>
</linearGradient>
</defs>
</svg>
