<svg width="13" height="12" viewBox="0 0 13 12" fill="none" xmlns="http://www.w3.org/2000/svg">
<path d="M12.7812 6.24219L7.96875 10.8359C7.69531 11.082 7.28516 11.082 7.03906 10.8086C6.79297 10.5352 6.79297 10.125 7.06641 9.87891L10.7031 6.40625H1.40625C1.02344 6.40625 0.75 6.13281 0.75 5.75C0.75 5.39453 1.02344 5.09375 1.40625 5.09375H10.7031L7.06641 1.64844C6.79297 1.40234 6.79297 0.964844 7.03906 0.71875C7.28516 0.445312 7.72266 0.445312 7.96875 0.691406L12.7812 5.28516C12.918 5.42188 13 5.58594 13 5.75C13 5.94141 12.918 6.10547 12.7812 6.24219Z" fill="#E14D31"/>
</svg>
