<svg width="1440" height="637" viewBox="0 0 1440 637" fill="none" xmlns="http://www.w3.org/2000/svg">
<g clip-path="url(#clip0_3608_1067)">
<rect width="1440" height="637" fill="#151618"/>
<path d="M923.322 825.87C706.059 824.724 531 651.318 531 437.939C531 224.561 706.059 51.1541 923.322 50C755.689 101.521 633.372 255.699 633.372 437.939V442.933C633.372 448.321 633.372 453.315 633.765 458.704C642.751 631.72 761.937 776.27 923.318 825.87H923.322Z" fill="#26282D" fill-opacity="0.1"/>
<path d="M1289.07 587.11C1245.7 689.384 1158.95 769.736 1051.88 805.499H1046.02C915.897 805.499 801.407 739.747 734.197 640.171C798.276 692.456 887.371 725.139 986.234 725.139C1114.79 725.139 1227.33 669.778 1289.07 587.11Z" fill="#26282D" fill-opacity="0.1"/>
<path d="M1297.27 310.293C1237.88 221.091 1120.65 160.35 986.229 160.35C947.937 160.35 911.205 165.344 876.815 174.572C826.41 187.263 781.079 209.567 743.567 238.402C735.361 244.164 727.543 251.084 720.117 258C784.214 146.119 906.518 69.9937 1046.02 69.9937H1050.71C1165.98 108.057 1257.42 197.259 1297.27 310.293Z" fill="#26282D" fill-opacity="0.1"/>
</g>
<defs>
<clipPath id="clip0_3608_1067">
<rect width="1440" height="637" fill="white"/>
</clipPath>
</defs>
</svg>
