<svg width="93" height="30" viewBox="0 0 93 30" fill="none" xmlns="http://www.w3.org/2000/svg">
<g clip-path="url(#clip0_3643_294)">
<path d="M51.5545 14.2352C50.9644 13.7488 50.0354 13.5125 48.7667 13.5125H38.6933V10.2383H49.2093V11.89C50.2713 11.6984 51.3478 11.4922 52.4097 11.2854V7.19995H34.9325V23.3943H48.7669C50.0355 23.3943 50.9644 23.1436 51.5547 22.6716C52.1445 22.1704 52.4394 21.3592 52.4394 20.2529V16.6396C52.4394 15.5334 52.1445 14.7369 51.5547 14.2353L51.5545 14.2352ZM48.7964 19.3091C48.7964 19.8103 48.6637 20.1643 48.3833 20.3415C48.1326 20.5184 47.7049 20.5922 47.1004 20.5922H38.6933V16.3003H47.1004C47.7049 16.3003 48.1328 16.3886 48.3833 16.551C48.6637 16.7426 48.7964 17.0817 48.7964 17.5834V19.3093V19.3091Z" fill="white"/>
<path d="M67.0498 14.9136C68.2151 14.7364 69.0262 14.412 69.4982 13.9399C69.9555 13.5122 70.1766 12.8041 70.1766 11.8457V10.3708C70.1766 9.11695 69.9112 8.2614 69.3653 7.83403C68.864 7.40633 67.9052 7.19995 66.4747 7.19995H57.7287C56.2981 7.19995 55.3392 7.40633 54.838 7.83403C54.2922 8.2614 54.0267 9.11695 54.0267 10.3708V11.3737L57.2271 11.9638V9.95774H65.2211C65.8553 9.95774 66.2684 10.0611 66.4747 10.2675C66.6664 10.4594 66.7696 10.8425 66.7696 11.4328V12.2588C66.7696 12.8338 66.6664 13.2174 66.4747 13.4093C66.2683 13.6157 65.8553 13.7338 65.2211 13.7338H60.3688V16.3592H65.8258C66.4451 16.3592 66.873 16.4622 67.0794 16.669C67.2859 16.8606 67.3891 17.244 67.3891 17.8342V19.0286C67.3891 19.6187 67.2859 20.0023 67.0794 20.1939C66.8728 20.3711 66.4451 20.4744 65.8258 20.4744H57.0944V18.2175L53.7759 18.8962V20.2234C53.7759 21.4773 54.0415 22.3181 54.587 22.7602C55.0885 23.1879 56.0472 23.3946 57.4778 23.3946H66.8876C68.4215 23.3946 69.4539 23.1141 70.0291 22.5686C70.5452 22.0966 70.8107 21.1967 70.8107 19.9137V18.2173C70.8107 16.2708 69.5573 15.1646 67.0498 14.9139V14.9136Z" fill="white"/>
<path d="M92.2761 7.19995V23.3943H89.2379V13.3063L84.2381 19.7955L82.3059 22.2881L80.3886 19.8103L75.3592 13.2768L75.3445 13.262V23.3943H72.3062V7.19995H75.3445V8.27665L75.3592 8.29142L82.3206 17.3032L89.2379 8.33571V7.19995H92.2761Z" fill="white"/>
<path d="M29.2419 15.1427C29.2419 19.8406 24.8416 23.7652 19.1178 24.449C22.7749 22.8581 25.3469 19.2011 25.3469 14.9496C25.3469 11.1289 23.2804 7.78395 20.203 6C25.3915 7.01075 29.2419 10.7274 29.2419 15.1425V15.1427Z" fill="white"/>
<path d="M14.9257 30C6.66003 29.9557 0 23.2507 0 15.0002C0 6.74961 6.66003 0.0446233 14.9257 0C8.54816 1.99214 3.8947 7.95362 3.8947 15.0002V15.1933C3.8947 15.4016 3.8947 15.5947 3.90963 15.8031C4.25152 22.4929 8.78588 28.0822 14.9255 30H14.9257Z" fill="white"/>
<path d="M28.8404 20.7681C27.1903 24.7226 23.89 27.8295 19.8167 29.2124H19.5937C14.6431 29.2124 10.2875 26.67 7.73047 22.8198C10.1683 24.8414 13.5579 26.1051 17.3191 26.1051C22.2101 26.1051 26.4916 23.9645 28.8404 20.7681Z" fill="url(#paint0_linear_3643_294)"/>
<path d="M29.1525 10.0644C26.8927 6.61532 22.4329 4.26669 17.3189 4.26669C15.8621 4.26669 14.4647 4.45979 13.1563 4.81661C11.2386 5.3073 9.51409 6.16975 8.08696 7.28467C7.77476 7.50746 7.47733 7.77504 7.19482 8.04245C9.63336 3.71645 14.2863 0.772949 19.5935 0.772949H19.7719C24.1576 2.2447 27.6361 5.69382 29.1525 10.0644Z" fill="url(#paint1_linear_3643_294)"/>
</g>
<defs>
<linearGradient id="paint0_linear_3643_294" x1="7.7303" y1="24.9902" x2="28.8404" y2="24.9902" gradientUnits="userSpaceOnUse">
<stop stop-color="#FF5133"/>
<stop offset="1" stop-color="#FF8533"/>
</linearGradient>
<linearGradient id="paint1_linear_3643_294" x1="7.19499" y1="5.4187" x2="29.1525" y2="5.4187" gradientUnits="userSpaceOnUse">
<stop stop-color="#FF5133"/>
<stop offset="1" stop-color="#FF8533"/>
</linearGradient>
<clipPath id="clip0_3643_294">
<rect width="92.2761" height="30" fill="white"/>
</clipPath>
</defs>
</svg>
