<svg width="93" height="30" viewBox="0 0 93 30" fill="none" xmlns="http://www.w3.org/2000/svg">
<g clip-path="url(#clip0_3609_592)">
<path d="M51.5545 14.2352C50.9644 13.7488 50.0354 13.5126 48.7667 13.5126H38.6933V10.2383H49.2093V11.8901C50.2713 11.6984 51.3478 11.4922 52.4097 11.2855V7.20001H34.9325V23.3943H48.7669C50.0355 23.3943 50.9644 23.1437 51.5547 22.6717C52.1445 22.1705 52.4394 21.3592 52.4394 20.253V16.6397C52.4394 15.5334 52.1445 14.7369 51.5547 14.2354L51.5545 14.2352ZM48.7964 19.3092C48.7964 19.8104 48.6637 20.1644 48.3833 20.3416C48.1326 20.5184 47.7049 20.5923 47.1004 20.5923H38.6933V16.3004H47.1004C47.7049 16.3004 48.1328 16.3886 48.3833 16.5511C48.6637 16.7427 48.7964 17.0818 48.7964 17.5835V19.3093V19.3092Z" fill="#151618"/>
<path d="M67.0498 14.9136C68.2151 14.7364 69.0262 14.4121 69.4982 13.9399C69.9555 13.5122 70.1766 12.8042 70.1766 11.8458V10.3709C70.1766 9.11701 69.9112 8.26146 69.3653 7.83409C68.864 7.4064 67.9052 7.20001 66.4747 7.20001H57.7287C56.2981 7.20001 55.3392 7.4064 54.838 7.83409C54.2922 8.26146 54.0267 9.11701 54.0267 10.3709V11.3738L57.2271 11.9639V9.9578H65.2211C65.8553 9.9578 66.2684 10.0612 66.4747 10.2675C66.6664 10.4595 66.7696 10.8426 66.7696 11.4328V12.2589C66.7696 12.8339 66.6664 13.2174 66.4747 13.4094C66.2683 13.6158 65.8553 13.7339 65.2211 13.7339H60.3688V16.3593H65.8258C66.4451 16.3593 66.873 16.4623 67.0794 16.669C67.2859 16.8606 67.3891 17.244 67.3891 17.8343V19.0286C67.3891 19.6187 67.2859 20.0023 67.0794 20.1939C66.8728 20.3711 66.4451 20.4745 65.8258 20.4745H57.0944V18.2175L53.7759 18.8962V20.2235C53.7759 21.4773 54.0415 22.3181 54.587 22.7603C55.0885 23.188 56.0472 23.3947 57.4778 23.3947H66.8876C68.4215 23.3947 69.4539 23.1141 70.0291 22.5686C70.5452 22.0967 70.8107 21.1968 70.8107 19.9137V18.2174C70.8107 16.2709 69.5573 15.1646 67.0498 14.9139V14.9136Z" fill="#151618"/>
<path d="M92.2761 7.20001V23.3943H89.2379V13.3064L84.2381 19.7956L82.3059 22.2881L80.3886 19.8104L75.3592 13.2768L75.3445 13.2621V23.3943H72.3062V7.20001H75.3445V8.27671L75.3592 8.29148L82.3206 17.3033L89.2379 8.33577V7.20001H92.2761Z" fill="#151618"/>
<path d="M29.2419 15.1427C29.2419 19.8406 24.8416 23.7652 19.1178 24.449C22.7749 22.8581 25.3469 19.2011 25.3469 14.9496C25.3469 11.1289 23.2804 7.78395 20.203 6C25.3915 7.01075 29.2419 10.7274 29.2419 15.1425V15.1427Z" fill="#151618"/>
<path d="M14.9257 30C6.66003 29.9557 0 23.2507 0 15.0002C0 6.74961 6.66003 0.0446233 14.9257 0C8.54816 1.99214 3.8947 7.95362 3.8947 15.0002V15.1933C3.8947 15.4016 3.8947 15.5947 3.90963 15.8031C4.25152 22.4929 8.78588 28.0822 14.9255 30H14.9257Z" fill="#151618"/>
<path d="M28.8404 20.7681C27.1903 24.7226 23.89 27.8295 19.8167 29.2124H19.5937C14.6431 29.2124 10.2875 26.67 7.73047 22.8198C10.1683 24.8414 13.5579 26.1051 17.3191 26.1051C22.2101 26.1051 26.4916 23.9645 28.8404 20.7681Z" fill="url(#paint0_linear_3609_592)"/>
<path d="M29.1525 10.0645C26.8927 6.61538 22.4329 4.26675 17.3189 4.26675C15.8621 4.26675 14.4647 4.45985 13.1563 4.81667C11.2386 5.30736 9.51409 6.16981 8.08696 7.28473C7.77476 7.50752 7.47733 7.7751 7.19482 8.04251C9.63336 3.71651 14.2863 0.77301 19.5935 0.77301H19.7719C24.1576 2.24476 27.6361 5.69388 29.1525 10.0645Z" fill="url(#paint1_linear_3609_592)"/>
</g>
<defs>
<linearGradient id="paint0_linear_3609_592" x1="7.7303" y1="24.9902" x2="28.8404" y2="24.9902" gradientUnits="userSpaceOnUse">
<stop stop-color="#FF5133"/>
<stop offset="1" stop-color="#FF8533"/>
</linearGradient>
<linearGradient id="paint1_linear_3609_592" x1="7.19499" y1="5.41876" x2="29.1525" y2="5.41876" gradientUnits="userSpaceOnUse">
<stop stop-color="#FF5133"/>
<stop offset="1" stop-color="#FF8533"/>
</linearGradient>
<clipPath id="clip0_3609_592">
<rect width="92.2761" height="30" fill="white"/>
</clipPath>
</defs>
</svg>
