<svg width="154" height="50" viewBox="0 0 154 50" fill="none" xmlns="http://www.w3.org/2000/svg">
<path d="M58.221 39.6877H60.9263V40.4809H59.2548V40.8418H59.9991C60.3797 40.8418 60.6714 40.9231 60.8751 41.0847C61.0786 41.2468 61.1803 41.4806 61.1803 41.7865C61.1803 42.0925 61.0643 42.3542 60.8325 42.5352C60.6006 42.7165 60.278 42.807 59.8651 42.807H58.2207V39.6874L58.221 39.6877ZM59.7943 42.072C59.8982 42.072 59.9791 42.0496 60.0371 42.005C60.095 41.9604 60.124 41.8965 60.124 41.8133C60.124 41.6531 60.0138 41.5727 59.7943 41.5727H59.2548V42.072H59.7943Z" fill="#151618"/>
<path d="M63.7962 39.8302C64.0101 39.9253 64.1749 40.0618 64.2909 40.24C64.4068 40.4183 64.4648 40.6261 64.4648 40.864C64.4648 41.1019 64.4068 41.3094 64.2909 41.488C64.1749 41.6662 64.0103 41.8029 63.7962 41.8978C63.5824 41.993 63.3311 42.0403 63.0429 42.0403H62.5929V42.807H61.541V39.6874H63.0429C63.3311 39.6874 63.5824 39.735 63.7962 39.8302ZM63.2967 41.1336C63.3681 41.0699 63.4033 40.9799 63.4033 40.864C63.4033 40.7481 63.3681 40.6584 63.2967 40.5944C63.2253 40.5307 63.1184 40.4984 62.976 40.4984H62.5926V41.2293H62.976C63.1184 41.2293 63.2251 41.1973 63.2967 41.1333V41.1336Z" fill="#151618"/>
<path d="M67.4504 39.6877V42.8072H66.4166V42.0673H66.136L65.6589 42.8072H64.5583L65.173 41.9161C64.9712 41.821 64.8162 41.6864 64.7074 41.5125C64.5988 41.3386 64.5447 41.133 64.5447 40.8954C64.5447 40.6578 64.6035 40.435 64.721 40.2537C64.8383 40.0727 65.0054 39.9327 65.2222 39.8348C65.4391 39.7366 65.6944 39.6877 65.9886 39.6877H67.4504ZM65.6056 40.8774C65.6056 41.1418 65.7387 41.2741 66.0064 41.2741H66.4163V40.4987H66.0064C65.739 40.4987 65.6056 40.625 65.6056 40.8776V40.8774Z" fill="#151618"/>
<path d="M71.0782 39.6877V42.8072H70.0263V41.6575H69.0546V42.8072H68.0027V39.6877H69.0546V40.7929H70.0263V39.6877H71.0782Z" fill="#151618"/>
<path d="M72.3082 42.6713C72.0441 42.5332 71.8363 42.3399 71.6867 42.0919C71.5366 41.8436 71.4617 41.5623 71.4617 41.2473C71.4617 40.9323 71.5366 40.651 71.6867 40.4027C71.8365 40.1547 72.0441 39.9616 72.3082 39.8233C72.5729 39.6852 72.8698 39.616 73.1996 39.616C73.5023 39.616 73.7727 39.6693 74.0103 39.7763C74.2484 39.8832 74.4445 40.0377 74.599 40.24L73.9351 40.8328C73.7421 40.5892 73.5146 40.4672 73.2532 40.4672C73.0331 40.4672 72.8561 40.5378 72.7224 40.6788C72.5893 40.8199 72.522 41.0094 72.522 41.247C72.522 41.4846 72.589 41.6741 72.7224 41.8152C72.8561 41.9566 73.0331 42.0268 73.2532 42.0268C73.5146 42.0268 73.7418 41.9052 73.9351 41.6615L74.599 42.2541C74.4445 42.4561 74.2484 42.6106 74.0103 42.7178C73.7727 42.8247 73.5023 42.878 73.1996 42.878C72.8698 42.878 72.5729 42.8088 72.3082 42.6708V42.6713Z" fill="#151618"/>
<path d="M77.0949 41.2027L78.0172 42.8072H76.8316L76.2347 41.6796H75.9402V42.8072H74.8889V39.6877H75.9402V40.8508H76.2615L76.9254 39.6877H78.0216L77.0949 41.2027Z" fill="#151618"/>
<path d="M78.2354 39.6877H79.2692V41.3099L80.3437 39.6877H81.3327V42.8072H80.2989V41.1893L79.2293 42.8072H78.2354V39.6877Z" fill="#151618"/>
<path d="M81.8855 39.6877H82.9193V41.3099L83.9939 39.6877H84.9829V42.8072H83.9491V41.1894L82.8794 42.8072H81.8855V39.6877ZM82.688 39.3178C82.5363 39.1901 82.4605 38.9987 82.4605 38.7427H83.1602C83.1602 38.8439 83.1799 38.9166 83.2201 38.9612C83.2603 39.0055 83.3306 39.0279 83.432 39.0279C83.5334 39.0279 83.6048 39.0058 83.6477 38.9612C83.6907 38.9166 83.7125 38.8439 83.7125 38.7427H84.4122C84.4122 38.9984 84.3349 39.1898 84.1804 39.3178C84.0259 39.4454 83.7762 39.5094 83.4317 39.5094C83.0872 39.5094 82.8387 39.4454 82.6875 39.3178H82.688Z" fill="#151618"/>
<path d="M89.3525 41.4836C89.4463 41.6145 89.4931 41.763 89.4931 41.9293C89.4931 42.1253 89.4239 42.2956 89.2858 42.4395C89.1477 42.5836 88.9618 42.6935 88.7286 42.7692C88.4953 42.845 88.2361 42.883 87.951 42.883C87.496 42.883 87.0639 42.7925 86.6538 42.6112L86.9614 41.8847C87.1069 41.9443 87.2584 41.9894 87.4159 42.0206C87.5733 42.052 87.7221 42.0673 87.8615 42.0673C88.0311 42.0673 88.1683 42.0435 88.2739 41.996C88.3791 41.9484 88.4319 41.8787 88.4319 41.7863C88.4319 41.6616 88.3296 41.5992 88.1248 41.5992H87.2821V40.8416H88.0354C88.1248 40.8416 88.1924 40.8254 88.2383 40.7926C88.2843 40.7601 88.3075 40.7141 88.3075 40.6545C88.3075 40.5772 88.2665 40.5178 88.1847 40.4763C88.1032 40.4347 87.9955 40.4139 87.8615 40.4139C87.7369 40.4139 87.6018 40.4314 87.4558 40.4672C87.3103 40.5031 87.1722 40.5534 87.0415 40.619L86.7339 39.8392C87.0787 39.6817 87.453 39.6027 87.8572 39.6027C88.1276 39.6027 88.3778 39.6398 88.608 39.7142C88.8382 39.7886 89.0222 39.8963 89.1606 40.0374C89.2987 40.1785 89.3678 40.3442 89.3678 40.5342C89.3678 40.6737 89.3326 40.8 89.2612 40.9132C89.1898 41.0261 89.0903 41.1166 88.9629 41.185C89.1292 41.2533 89.259 41.3529 89.3525 41.4833V41.4836Z" fill="#151618"/>
<path d="M92.0686 42.2634H90.8836L90.6739 42.8072H89.6042L90.9681 39.6877H92.0019L93.3658 42.8072H92.2784L92.0686 42.2634ZM91.7791 41.506L91.4764 40.7215L91.1732 41.506H91.7794H91.7791Z" fill="#151618"/>
<path d="M96.4541 41.4502C96.5463 41.5735 96.5922 41.7242 96.5922 41.9024C96.5922 42.1819 96.4817 42.4025 96.26 42.5644C96.0388 42.7266 95.7262 42.8072 95.3221 42.8072H93.655V39.6877H95.2376C95.6234 39.6877 95.9228 39.759 96.1353 39.9015C96.3477 40.0442 96.4541 40.2447 96.4541 40.5033C96.4541 40.6518 96.4194 40.7825 96.3494 40.8954C96.2794 41.0083 96.1809 41.1005 96.053 41.1716C96.2283 41.2342 96.362 41.3269 96.4544 41.4502H96.4541ZM94.6891 40.8864H95.1348C95.3074 40.8864 95.3938 40.8106 95.3938 40.6592C95.3938 40.5077 95.3074 40.4227 95.1348 40.4227H94.6891V40.8864ZM95.5318 41.8223C95.5318 41.6621 95.4454 41.5817 95.2729 41.5817H94.6891V42.0722H95.2729C95.4454 42.0722 95.5318 41.9888 95.5318 41.8226V41.8223Z" fill="#151618"/>
<path d="M97.6486 42.6691C97.3811 42.5297 97.1714 42.3355 97.0202 42.0875C96.8685 41.8395 96.7927 41.5596 96.7927 41.2476C96.7927 40.9356 96.8685 40.6556 97.0202 40.4076C97.1714 40.1596 97.3809 39.9657 97.6486 39.826C97.916 39.6866 98.2176 39.6166 98.5531 39.6166C98.8885 39.6166 99.1904 39.6863 99.4581 39.826C99.7252 39.9657 99.9347 40.1596 100.086 40.4076C100.238 40.6556 100.314 40.9356 100.314 41.2476C100.314 41.5596 100.238 41.8395 100.086 42.0875C99.9347 42.3358 99.7252 42.5297 99.4581 42.6691C99.1907 42.8086 98.8888 42.8786 98.5531 42.8786C98.2173 42.8786 97.916 42.8088 97.6486 42.6691ZM98.9074 41.9314C99.0127 41.8677 99.0966 41.7772 99.159 41.6596C99.2219 41.5423 99.2527 41.4048 99.2527 41.2476C99.2527 41.0904 99.2219 40.9528 99.159 40.8355C99.0966 40.7182 99.0127 40.6277 98.9074 40.5637C98.8016 40.4997 98.6838 40.4678 98.5531 40.4678C98.4224 40.4678 98.3042 40.4997 98.199 40.5637C98.0931 40.6277 98.0092 40.7182 97.9469 40.8355C97.8845 40.9528 97.8531 41.0904 97.8531 41.2476C97.8531 41.4048 97.8845 41.5423 97.9469 41.6596C98.0092 41.7772 98.0931 41.8677 98.199 41.9314C98.3042 41.9954 98.4221 42.0274 98.5531 42.0274C98.684 42.0274 98.8019 41.9954 98.9074 41.9314Z" fill="#151618"/>
<path d="M104.102 41.9916V43.4178H103.139V42.8072H101.365V43.4178H100.403V41.9916H100.492C100.673 41.9916 100.801 41.8773 100.875 41.6484C100.949 41.4198 100.997 41.0824 101.018 40.6367L101.054 39.6877H103.692V41.9916H104.102H104.102ZM101.86 41.4904C101.824 41.6998 101.769 41.8672 101.695 41.9916H102.658V40.5033H101.94L101.932 40.7262C101.92 41.0264 101.896 41.2807 101.86 41.4904Z" fill="#151618"/>
<path d="M108.576 42.8072L108.567 41.3854L107.89 42.5264H107.426L106.749 41.4346V42.8072H105.79V39.6877H106.655L107.671 41.3501L108.661 39.6877H109.525L109.534 42.8072H108.576H108.576Z" fill="#151618"/>
<path d="M112.676 42.014V42.8072H110.082V39.6877H112.618V40.4809H111.116V40.8465H112.435V41.6041H111.116V42.014H112.676Z" fill="#151618"/>
<path d="M115.76 40.5033H114.847V42.8072H113.813V40.5033H112.899V39.6877H115.76V40.5033Z" fill="#151618"/>
<path d="M118.154 42.2634H116.968L116.759 42.8072H115.689L117.053 39.6877H118.087L119.451 42.8072H118.363L118.154 42.2634ZM117.864 41.506L117.561 40.7215L117.258 41.506H117.864H117.864Z" fill="#151618"/>
<path d="M122.828 39.6877V42.8072H121.795V40.5033H121.082L121.072 40.8642C121.061 41.3097 121.025 41.6752 120.966 41.9604C120.906 42.2456 120.802 42.4676 120.654 42.6265C120.505 42.7856 120.293 42.8649 120.016 42.8649C119.877 42.8649 119.728 42.8455 119.571 42.8069L119.624 41.9648C119.663 41.9738 119.702 41.9782 119.74 41.9782C119.85 41.9782 119.934 41.9336 119.992 41.8445C120.05 41.7553 120.089 41.6367 120.11 41.4882C120.131 41.3397 120.146 41.1451 120.155 40.9044L120.195 39.6877H122.829H122.828Z" fill="#151618"/>
<path d="M126.425 39.6877V42.8072H125.391V40.5033H124.678L124.669 40.8642C124.657 41.3097 124.622 41.6752 124.562 41.9604C124.503 42.2456 124.398 42.4676 124.25 42.6265C124.102 42.7856 123.889 42.8649 123.613 42.8649C123.473 42.8649 123.325 42.8455 123.167 42.8069L123.221 41.9648C123.259 41.9738 123.298 41.9782 123.337 41.9782C123.446 41.9782 123.53 41.9336 123.588 41.8445C123.646 41.7553 123.686 41.6367 123.707 41.4882C123.727 41.3397 123.743 41.1451 123.751 40.9044L123.791 39.6877H126.425H126.425Z" fill="#151618"/>
<path d="M132.66 39.8167C132.874 39.9119 133.039 40.0483 133.155 40.2266C133.271 40.4049 133.329 40.6127 133.329 40.8506C133.329 41.0885 133.271 41.296 133.155 41.4745C133.039 41.6528 132.874 41.7895 132.66 41.8844C132.446 41.9795 132.195 42.0269 131.907 42.0269H131.457V42.7935H130.405V39.674H131.907C132.195 39.674 132.446 39.7216 132.66 39.8167ZM132.161 41.1202C132.232 41.0565 132.268 40.9665 132.268 40.8506C132.268 40.7346 132.232 40.645 132.161 40.581C132.09 40.5173 131.982 40.485 131.84 40.485H131.457V41.2159H131.84C131.982 41.2159 132.09 41.1839 132.161 41.1199V41.1202Z" fill="#151618"/>
<path d="M136.698 39.674L135.445 42.0228C135.297 42.3022 135.114 42.5147 134.899 42.6599C134.684 42.8056 134.447 42.8783 134.188 42.8783C133.989 42.8783 133.787 42.8365 133.582 42.7534L133.827 41.9957C133.958 42.0315 134.065 42.0493 134.148 42.0493C134.225 42.0493 134.291 42.0359 134.346 42.0091C134.401 41.9823 134.454 41.9377 134.505 41.8754L133.31 39.6738H134.42L135.039 40.9884L135.681 39.6738H136.697L136.698 39.674Z" fill="#151618"/>
<path d="M139.096 41.1891L140.018 42.7935H138.832L138.235 41.6659H137.941V42.7935H136.889V39.674H137.941V40.8372H138.262L138.926 39.674H140.022L139.095 41.1891H139.096Z" fill="#151618"/>
<path d="M142.349 42.25H141.163L140.954 42.7938H139.884L141.248 39.6743H142.282L143.646 42.7938H142.558L142.349 42.25ZM142.059 41.4926L141.756 40.7081L141.453 41.4926H142.059H142.059Z" fill="#151618"/>
<path d="M146.734 41.4368C146.826 41.5601 146.872 41.7108 146.872 41.8891C146.872 42.1685 146.762 42.3892 146.54 42.551C146.319 42.7132 146.006 42.7938 145.602 42.7938H143.935V39.6743H145.517C145.903 39.6743 146.203 39.7457 146.415 39.8881C146.628 40.0309 146.734 40.2313 146.734 40.4899C146.734 40.6384 146.699 40.7691 146.629 40.882C146.559 40.995 146.461 41.0871 146.333 41.1582C146.508 41.2208 146.642 41.3135 146.734 41.4368H146.734ZM144.969 40.873H145.415C145.587 40.873 145.673 40.7973 145.673 40.6458C145.673 40.4943 145.587 40.4093 145.415 40.4093H144.969V40.873ZM145.811 41.8087C145.811 41.6485 145.725 41.5681 145.553 41.5681H144.969V42.0586H145.553C145.725 42.0586 145.811 41.9752 145.811 41.809V41.8087Z" fill="#151618"/>
<path d="M147.928 42.6554C147.661 42.516 147.452 42.3219 147.3 42.0739C147.148 41.8259 147.073 41.5459 147.073 41.2339C147.073 40.9219 147.148 40.6419 147.3 40.3939C147.452 40.1459 147.661 39.9521 147.928 39.8124C148.196 39.6729 148.497 39.6029 148.833 39.6029C149.169 39.6029 149.47 39.6726 149.738 39.8124C150.005 39.9521 150.214 40.1459 150.366 40.3939C150.518 40.6419 150.594 40.9219 150.594 41.2339C150.594 41.5459 150.518 41.8259 150.366 42.0739C150.214 42.3221 150.006 42.516 149.738 42.6554C149.47 42.7949 149.169 42.8649 148.833 42.8649C148.498 42.8649 148.196 42.7952 147.928 42.6554ZM149.187 41.918C149.293 41.8543 149.376 41.7638 149.439 41.6462C149.502 41.5289 149.533 41.3914 149.533 41.2342C149.533 41.077 149.502 40.9394 149.439 40.8221C149.376 40.7048 149.293 40.6143 149.187 40.5503C149.082 40.4863 148.964 40.4544 148.833 40.4544C148.703 40.4544 148.584 40.4863 148.479 40.5503C148.373 40.6143 148.29 40.7048 148.227 40.8221C148.164 40.9394 148.133 41.077 148.133 41.2342C148.133 41.3914 148.164 41.5289 148.227 41.6462C148.29 41.7638 148.373 41.8543 148.479 41.918C148.584 41.982 148.702 42.014 148.833 42.014C148.964 42.014 149.082 41.982 149.187 41.918Z" fill="#151618"/>
<path d="M127.476 42.7337C127.209 42.5942 127 42.4001 126.848 42.1521C126.696 41.9041 126.621 41.6241 126.621 41.3121C126.621 41.0002 126.696 40.7202 126.848 40.4722C127 40.2242 127.209 40.0303 127.476 39.8906C127.744 39.7512 128.045 39.6812 128.381 39.6812C128.718 39.6812 129.019 39.7509 129.286 39.8906C129.553 40.0303 129.763 40.2242 129.914 40.4722C130.066 40.7202 130.142 41.0002 130.142 41.3121C130.142 41.6241 130.066 41.9041 129.914 42.1521C129.763 42.4004 129.554 42.5942 129.286 42.7337C129.019 42.8731 128.717 42.9431 128.381 42.9431C128.046 42.9431 127.744 42.8734 127.476 42.7337ZM128.735 41.996C128.841 41.9323 128.925 41.8418 128.987 41.7242C129.05 41.6069 129.081 41.4694 129.081 41.3121C129.081 41.1549 129.05 41.0174 128.987 40.9001C128.925 40.7828 128.841 40.6923 128.735 40.6283C128.63 40.5643 128.512 40.5323 128.381 40.5323C128.251 40.5323 128.132 40.5643 128.027 40.6283C127.921 40.6923 127.838 40.7828 127.775 40.9001C127.712 41.0174 127.681 41.1549 127.681 41.3121C127.681 41.4694 127.712 41.6069 127.775 41.7242C127.838 41.8418 127.921 41.9323 128.027 41.996C128.132 42.06 128.25 42.092 128.381 42.092C128.512 42.092 128.63 42.06 128.735 41.996Z" fill="#151618"/>
<path d="M153.771 41.4368C153.863 41.5601 153.909 41.7108 153.909 41.8891C153.909 42.1685 153.799 42.3892 153.577 42.551C153.356 42.7132 153.043 42.7938 152.639 42.7938H150.972V39.6743H152.554C152.941 39.6743 153.24 39.7457 153.452 39.8881C153.665 40.0309 153.771 40.2313 153.771 40.4899C153.771 40.6384 153.736 40.7691 153.667 40.882C153.597 40.995 153.498 41.0871 153.37 41.1582C153.545 41.2208 153.679 41.3135 153.772 41.4368H153.771ZM152.006 40.873H152.452C152.624 40.873 152.71 40.7973 152.71 40.6458C152.71 40.4943 152.624 40.4093 152.452 40.4093H152.006V40.873ZM152.848 41.8087C152.848 41.6485 152.763 41.5681 152.59 41.5681H152.006V42.0586H152.59C152.763 42.0586 152.848 41.9752 152.848 41.809V41.8087Z" fill="#151618"/>
<path d="M85.9243 21.0047C84.9408 20.194 83.3924 19.8002 81.278 19.8002H64.489V14.3432H82.0157V17.096C83.7856 16.7767 85.5798 16.433 87.3497 16.0885V9.2793H58.2209V36.2698H81.2782C83.3927 36.2698 84.9408 35.852 85.9246 35.0654C86.9076 34.2301 87.3992 32.878 87.3992 31.0343V25.012C87.3992 23.1683 86.9076 21.8408 85.9246 21.005L85.9243 21.0047ZM81.3275 29.4612C81.3275 30.2966 81.1063 30.8866 80.639 31.1819C80.2212 31.4767 79.5084 31.5997 78.5008 31.5997H64.489V24.4466H78.5008C79.5084 24.4466 80.2214 24.5937 80.639 24.8644C81.1063 25.1837 81.3275 25.7489 81.3275 26.5851V29.4615V29.4612Z" fill="#151618"/>
<path d="M111.75 22.141C113.692 21.8457 115.044 21.3052 115.83 20.5182C116.592 19.8054 116.961 18.6253 116.961 17.0279V14.5698C116.961 12.48 116.519 11.0541 115.609 10.3418C114.773 9.62901 113.175 9.28503 110.791 9.28503H96.2144C93.8301 9.28503 92.232 9.62901 91.3966 10.3418C90.4869 11.0541 90.0445 12.48 90.0445 14.5698V16.2413L95.3786 17.2248V13.8813H108.702C109.759 13.8813 110.447 14.0536 110.791 14.3976C111.111 14.7175 111.283 15.3559 111.283 16.3397V17.7164C111.283 18.6748 111.111 19.3141 110.791 19.634C110.447 19.978 109.759 20.1748 108.702 20.1748H100.615V24.5505H109.71C110.742 24.5505 111.455 24.7222 111.799 25.0667C112.143 25.3861 112.315 26.0251 112.315 27.0089V28.9994C112.315 29.9829 112.143 30.6222 111.799 30.9416C111.455 31.2369 110.742 31.4091 109.71 31.4091H95.1574V27.6476L89.6265 28.7788V30.9908C89.6265 33.0806 90.0691 34.4819 90.9783 35.2188C91.8142 35.9316 93.4121 36.2761 95.7964 36.2761H111.479C114.036 36.2761 115.757 35.8086 116.715 34.8994C117.575 34.1128 118.018 32.613 118.018 30.4746V27.6473C118.018 24.4031 115.929 22.5594 111.75 22.1416V22.141Z" fill="#151618"/>
<path d="M82.0157 14.3432H76.0181V14.3678H82.0157V14.3432Z" fill="#3B4351"/>
<path d="M87.3742 9.2793H87.3496V14.3678H87.3742V9.2793Z" fill="#3B4351"/>
<path d="M153.793 9.2793V36.2698H148.73V19.4565L140.397 30.2719L137.176 34.4261L133.981 30.2966L125.599 19.4073L125.574 19.3827V36.2698H120.51V9.2793H125.574V11.0738L125.599 11.0984L137.201 26.118L148.73 11.1722V9.2793H153.793Z" fill="#151618"/>
<path d="M48.7365 25.3221C48.7365 33.152 41.4026 39.6929 31.863 40.8326C37.9583 38.1811 42.2448 32.0862 42.2448 25.0003C42.2448 18.6324 38.8007 13.0575 33.6718 10.0843C42.3192 11.7689 48.7365 17.9634 48.7365 25.3218V25.3221Z" fill="#151618"/>
<path d="M24.8761 50C11.1001 49.9262 0 38.7512 0 25.0003C0 11.2493 11.1001 0.0743722 24.8761 0C14.2469 3.32023 6.49116 13.256 6.49116 25.0003V25.3221C6.49116 25.6693 6.49116 25.9912 6.51604 26.3384C7.08587 37.4882 14.6431 46.8036 24.8759 50H24.8761Z" fill="#151618"/>
<path d="M48.0675 34.6134C45.3174 41.2044 39.8169 46.3825 33.0279 48.6872H32.6563C24.4054 48.6872 17.1459 44.4499 12.8843 38.0329C16.9474 41.4023 22.5967 43.5085 28.8653 43.5085C37.017 43.5085 44.1529 39.9409 48.0675 34.6134Z" fill="url(#paint0_linear_3609_548)"/>
<path d="M48.5875 16.7742C44.8213 11.0257 37.3882 7.1113 28.8649 7.1113C26.4369 7.1113 24.1078 7.43312 21.9273 8.02783C18.7312 8.84565 15.8569 10.2831 13.4784 12.1413C12.958 12.5126 12.4623 12.9585 11.9915 13.4042C16.0557 6.19422 23.8106 1.28839 32.656 1.28839H32.9532C40.2627 3.74131 46.0602 9.48984 48.5875 16.7742Z" fill="url(#paint1_linear_3609_548)"/>
<defs>
<linearGradient id="paint0_linear_3609_548" x1="12.884" y1="41.6503" x2="48.0675" y2="41.6503" gradientUnits="userSpaceOnUse">
<stop stop-color="#FF5133"/>
<stop offset="1" stop-color="#FF8533"/>
</linearGradient>
<linearGradient id="paint1_linear_3609_548" x1="11.9917" y1="9.0313" x2="48.5875" y2="9.0313" gradientUnits="userSpaceOnUse">
<stop stop-color="#FF5133"/>
<stop offset="1" stop-color="#FF8533"/>
</linearGradient>
</defs>
</svg>
