<svg width="14" height="14" viewBox="0 0 14 14" fill="none" xmlns="http://www.w3.org/2000/svg">
<path d="M9.52148 7.63281L12.3652 8.85156C12.8223 9.0293 13.0762 9.51172 12.9746 9.99414L12.3652 12.8379C12.2637 13.2949 11.832 13.6504 11.375 13.6504C11.1973 13.6504 11.0449 13.625 10.8926 13.625C10.6387 13.625 10.3848 13.5996 10.1562 13.5742C4.44336 12.9648 0 8.14062 0 2.25C0 1.79297 0.330078 1.36133 0.787109 1.25977L3.63086 0.650391C4.11328 0.548828 4.5957 0.802734 4.77344 1.25977L5.99219 4.10352C6.16992 4.50977 6.06836 4.99219 5.71289 5.27148L4.67188 6.13477C5.35742 7.30273 6.32227 8.26758 7.49023 8.95312L8.35352 7.91211C8.63281 7.55664 9.11523 7.45508 9.52148 7.63281ZM11.1973 12.4062L11.7305 9.89258L9.19141 8.80078L8.45508 9.71484C8.07422 10.1719 7.41406 10.2988 6.88086 9.99414C5.53516 9.20703 4.41797 8.08984 3.63086 6.74414C3.32617 6.21094 3.45312 5.55078 3.91016 5.16992L4.82422 4.43359L3.73242 1.89453L1.21875 2.42773C1.29492 7.91211 5.71289 12.3301 11.1973 12.4062Z" fill="#E14D31"/>
</svg>
