<svg width="13" height="10" viewBox="0 0 13 10" fill="none" xmlns="http://www.w3.org/2000/svg">
<path d="M1.625 1.46875C1.39648 1.46875 1.21875 1.67188 1.21875 1.875V2.45898L5.58594 6.03906C6.11914 6.4707 6.85547 6.4707 7.38867 6.03906L11.7812 2.45898V1.875C11.7812 1.67188 11.5781 1.46875 11.375 1.46875H1.625ZM1.21875 4.0332V8.375C1.21875 8.60352 1.39648 8.78125 1.625 8.78125H11.375C11.5781 8.78125 11.7812 8.60352 11.7812 8.375V4.0332L8.17578 6.97852C7.18555 7.79102 5.78906 7.79102 4.82422 6.97852L1.21875 4.0332ZM0 1.875C0 0.986328 0.710938 0.25 1.625 0.25H11.375C12.2637 0.25 13 0.986328 13 1.875V8.375C13 9.28906 12.2637 10 11.375 10H1.625C0.710938 10 0 9.28906 0 8.375V1.875Z" fill="#E14D31"/>
</svg>
