<svg width="21" height="21" viewBox="0 0 21 21" fill="none" xmlns="http://www.w3.org/2000/svg">
<path d="M14.6484 11.2812L19.0234 13.1562C19.7266 13.4297 20.1172 14.1719 19.9609 14.9141L19.0234 19.2891C18.8672 19.9922 18.2031 20.5391 17.5 20.5391C17.2266 20.5391 16.9922 20.5 16.7578 20.5C16.3672 20.5 15.9766 20.4609 15.625 20.4219C6.83594 19.4844 0 12.0625 0 3C0 2.29688 0.507812 1.63281 1.21094 1.47656L5.58594 0.539062C6.32812 0.382812 7.07031 0.773438 7.34375 1.47656L9.21875 5.85156C9.49219 6.47656 9.33594 7.21875 8.78906 7.64844L7.1875 8.97656C8.24219 10.7734 9.72656 12.2578 11.5234 13.3125L12.8516 11.7109C13.2812 11.1641 14.0234 11.0078 14.6484 11.2812ZM17.2266 18.625L18.0469 14.7578L14.1406 13.0781L13.0078 14.4844C12.4219 15.1875 11.4062 15.3828 10.5859 14.9141C8.51562 13.7031 6.79688 11.9844 5.58594 9.91406C5.11719 9.09375 5.3125 8.07812 6.01562 7.49219L7.42188 6.35938L5.74219 2.45312L1.875 3.27344C1.99219 11.7109 8.78906 18.5078 17.2266 18.625Z" fill="#E14D31"/>
</svg>
